# xmcd CD database file
#
# Track frame offsets:
#	183
#	19458
#	40315
#	61198
#	90395
#	103728
#	138283
#	166558
#	192695
#	212800
#	269145
#	295265
#	308433
#
# Disc length: 4457 seconds
#
# Revision: 0
# Processed by: cddbd v1.5.1PL0 Copyright (c) Steve Scherf et al.
# Submitted via: CDex 1.51
#
DISCID=bb11670d
DTITLE=Screamin' Jay Hawkins - Dr. Macabre - Live in Neuchatel, 10.10. 1991
DYEAR=1991
DGENRE=Blues
TTITLE0=Wooly Bully
TTITLE1=Hong Kong
TTITLE2=Ain't That A Shame
TTITLE3=Woke Up This Morning
TTITLE4=Band Introduction
TTITLE5=Bite It
TTITLE6=Alligator Wine
TTITLE7=I Put A Spell On You
TTITLE8=Shout
TTITLE9=Pretty Girl
TTITLE10=Stand By My
TTITLE11=Goodnight Sweetheart
TTITLE12=Please Don't Leave Me
EXTD=YEAR: 1991
EXTT0=
EXTT1=
EXTT2=
EXTT3=
EXTT4=
EXTT5=
EXTT6=
EXTT7=
EXTT8=
EXTT9=
EXTT10=
EXTT11=
EXTT12=
PLAYORDER=
